<?xml version="1.0" standalone="no"?><svg xmlns:xlink="http://www.w3.org/1999/xlink" xmlns="http://www.w3.org/2000/svg" viewBox="0 0 1900 950" preserveAspectRatio="xMaxYMax slice"><g transform="scale(1.3437057991513437)"><rect x="0" y="0" width="1414" height="707" fill="#ffffff"/><path d="M 117.83 0 A 117.83 117.83 0 0 1  235.66 117.83 L 117.83 0 A 117.83 117.83 0 0 0 235.66 117.83" fill="#ffd4c6"/><rect x="353.5" y="0" width="117.83333333333333" height="117.83333333333333" fill="#ffffff"/><path d="M 471.33 117.83 A 117.83 117.83 0 0 1  589.16 0 L 471.33 117.83 A 117.83 117.83 0 0 0 589.16 0" fill="#ffa88d"/><path d="M 707 117.83 A 117.83 117.83 0 0 1  824.83 0 L 707 117.83 A 117.83 117.83 0 0 0 824.83 0" fill="#ffb49d"/><path d="M 824.83 117.83 A 117.83 117.83 0 0 1  942.6600000000001 0 L 824.83 117.83 A 117.83 117.83 0 0 0 942.6600000000001 0" fill="#98aaf2"/><path d="M 235.67 117.83 A 117.83 117.83 0 0 1  353.5 235.66 L 235.67 117.83 A 117.83 117.83 0 0 0 353.5 235.66" fill="#ffa387"/><path d="M 942.67 235.66 A 117.83 117.83 0 0 1  1060.5 117.83 L 942.67 235.66 A 117.83 117.83 0 0 0 1060.5 117.83" fill="#728aed"/><rect x="1178.3333333333333" y="117.83333333333333" width="117.83333333333333" height="117.83333333333333" fill="#ffffff"/><path d="M 1178.33 176.75 A 58.92 58.92 0 0 1  1237.25 235.67000000000002 L 1178.33 176.75 A 58.92 58.92 0 0 0 1237.25 235.67000000000002" fill="#4766e7"/><path d="M 1237.25 235.67000000000002 A 58.92 58.92 0 0 1  1296.17 176.75 L 1237.25 235.67000000000002 A 58.92 58.92 0 0 0 1296.17 176.75" fill="#2247e2"/><path d="M 0 235.67 A 117.83 117.83 0 0 1  117.83 353.5 L 0 235.67 A 117.83 117.83 0 0 0 117.83 353.5" fill="#ffece6"/><path d="M 235.67 235.67 A 117.83 117.83 0 0 1  353.5 353.5 L 235.67 235.67 A 117.83 117.83 0 0 0 353.5 353.5" fill="#ffbba7"/><path d="M 353.5 235.67 A 117.83 117.83 0 0 1  471.33 353.5 L 353.5 235.67 A 117.83 117.83 0 0 0 471.33 353.5" fill="#96a7f1"/><path d="M 471.33 235.67 A 117.83 117.83 0 0 1  589.16 353.5 L 471.33 235.67 A 117.83 117.83 0 0 0 589.16 353.5" fill="#fffdfc"/><path d="M 942.67 353.5 A 117.83 117.83 0 0 1  1060.5 235.67 L 942.67 353.5 A 117.83 117.83 0 0 0 1060.5 235.67" fill="#ffe2d9"/><rect x="1178.3333333333333" y="235.66666666666666" width="117.83333333333333" height="117.83333333333333" fill="#ffffff"/><path d="M 1178.33 353.5 A 58.92 58.92 0 0 1  1237.25 294.58 L 1178.33 353.5 A 58.92 58.92 0 0 0 1237.25 294.58" fill="#ff8d6a"/><rect x="235.66666666666666" y="353.5" width="117.83333333333333" height="117.83333333333333" fill="#ffffff"/><path d="M 235.67 412.42 A 58.92 58.92 0 0 1  294.59 353.5 L 235.67 412.42 A 58.92 58.92 0 0 0 294.59 353.5" fill="#1a40e1"/><path d="M 707 353.5 A 117.83 117.83 0 0 1  824.83 471.33 L 707 353.5 A 117.83 117.83 0 0 0 824.83 471.33" fill="#98a9f2"/><path d="M 471.33 589.16 A 117.83 117.83 0 0 1  589.16 471.33 L 471.33 589.16 A 117.83 117.83 0 0 0 589.16 471.33" fill="#2449e3"/><path d="M 589.17 589.16 A 117.83 117.83 0 0 1  707 471.33 L 589.17 589.16 A 117.83 117.83 0 0 0 707 471.33" fill="#526fe8"/><rect x="1178.3333333333333" y="471.3333333333333" width="117.83333333333333" height="117.83333333333333" fill="#ffffff"/><path d="M 1178.33 530.25 A 58.92 58.92 0 0 1  1237.25 589.17 L 1178.33 530.25 A 58.92 58.92 0 0 0 1237.25 589.17" fill="#ffbfac"/><path d="M 1296.17 471.33 A 117.83 117.83 0 0 1  1414 589.16 L 1296.17 471.33 A 117.83 117.83 0 0 0 1414 589.16" fill="#7b91ee"/><path d="M 235.67 589.17 A 117.83 117.83 0 0 1  353.5 707 L 235.67 589.17 A 117.83 117.83 0 0 0 353.5 707" fill="#ffebe5"/><path d="M 353.5 707 A 117.83 117.83 0 0 1  471.33 589.17 L 353.5 707 A 117.83 117.83 0 0 0 471.33 589.17" fill="#eceffd"/><rect x="589.1666666666666" y="589.1666666666666" width="117.83333333333333" height="117.83333333333333" fill="#ffffff"/><path d="M 589.17 648.0899999999999 A 58.92 58.92 0 0 1  648.0899999999999 589.17 L 589.17 648.0899999999999 A 58.92 58.92 0 0 0 648.0899999999999 589.17" fill="#ffcfc1"/><path d="M 707 589.17 A 117.83 117.83 0 0 1  824.83 707 L 707 589.17 A 117.83 117.83 0 0 0 824.83 707" fill="#ffa286"/></g></svg>