<?xml version="1.0" standalone="no"?><svg xmlns:xlink="http://www.w3.org/1999/xlink" xmlns="http://www.w3.org/2000/svg" viewBox="0 0 1900 950" preserveAspectRatio="xMaxYMax slice"><g transform="scale(1.3437057991513437)"><rect x="0" y="0" width="1414" height="707" fill="#ffffff"/><path d="M 0 117.83 A 117.83 117.83 0 0 1  117.83 0 L 0 117.83 A 117.83 117.83 0 0 0 117.83 0" fill="#ffb098"/><path d="M 235.67 117.83 A 117.83 117.83 0 0 1  353.5 0 L 235.67 117.83 A 117.83 117.83 0 0 0 353.5 0" fill="#fffbf9"/><path d="M 824.83 0 A 117.83 117.83 0 0 1  942.6600000000001 117.83 L 824.83 0 A 117.83 117.83 0 0 0 942.6600000000001 117.83" fill="#ff7c53"/><path d="M 1296.17 117.83 A 117.83 117.83 0 0 1  1414 0 L 1296.17 117.83 A 117.83 117.83 0 0 0 1414 0" fill="#ffe5de"/><path d="M 0 117.83 A 117.83 117.83 0 0 1  117.83 235.66 L 0 117.83 A 117.83 117.83 0 0 0 117.83 235.66" fill="#ff8965"/><path d="M 471.33 235.66 A 117.83 117.83 0 0 1  589.16 117.83 L 471.33 235.66 A 117.83 117.83 0 0 0 589.16 117.83" fill="#254ae3"/><path d="M 824.83 117.83 A 117.83 117.83 0 0 1  942.6600000000001 235.66 L 824.83 117.83 A 117.83 117.83 0 0 0 942.6600000000001 235.66" fill="#93a5f1"/><path d="M 942.67 117.83 A 117.83 117.83 0 0 1  1060.5 235.66 L 942.67 117.83 A 117.83 117.83 0 0 0 1060.5 235.66" fill="#c3cdf7"/><path d="M 1060.5 117.83 A 117.83 117.83 0 0 1  1178.33 235.66 L 1060.5 117.83 A 117.83 117.83 0 0 0 1178.33 235.66" fill="#6881eb"/><path d="M 0 235.67 A 117.83 117.83 0 0 1  117.83 353.5 L 0 235.67 A 117.83 117.83 0 0 0 117.83 353.5" fill="#ffc1ae"/><path d="M 117.83 235.67 A 117.83 117.83 0 0 1  235.66 353.5 L 117.83 235.67 A 117.83 117.83 0 0 0 235.66 353.5" fill="#ffcfc1"/><path d="M 824.83 353.5 A 117.83 117.83 0 0 1  942.6600000000001 235.67 L 824.83 353.5 A 117.83 117.83 0 0 0 942.6600000000001 235.67" fill="#ffb39c"/><path d="M 1060.5 353.5 A 117.83 117.83 0 0 1  1178.33 235.67 L 1060.5 353.5 A 117.83 117.83 0 0 0 1178.33 235.67" fill="#8fa2f0"/><path d="M 1178.33 353.5 A 117.83 117.83 0 0 1  1296.1599999999999 235.67 L 1178.33 353.5 A 117.83 117.83 0 0 0 1296.1599999999999 235.67" fill="#889cf0"/><path d="M 0 471.33 A 117.83 117.83 0 0 1  117.83 353.5 L 0 471.33 A 117.83 117.83 0 0 0 117.83 353.5" fill="#ffb7a1"/><rect x="353.5" y="353.5" width="117.83333333333333" height="117.83333333333333" fill="#ffffff"/><path d="M 412.42 412.42 A 58.92 58.92 0 0 1  471.34000000000003 353.5 L 412.42 412.42 A 58.92 58.92 0 0 0 471.34000000000003 353.5" fill="#d5dcf9"/><path d="M 412.42 471.34000000000003 A 58.92 58.92 0 0 1  471.34000000000003 412.42 L 412.42 471.34000000000003 A 58.92 58.92 0 0 0 471.34000000000003 412.42" fill="#93a5f1"/><path d="M 589.17 471.33 A 117.83 117.83 0 0 1  707 353.5 L 589.17 471.33 A 117.83 117.83 0 0 0 707 353.5" fill="#ff7e56"/><rect x="824.8333333333333" y="353.5" width="117.83333333333333" height="117.83333333333333" fill="#ffffff"/><path d="M 883.75 353.5 A 58.92 58.92 0 0 1  942.67 412.42 L 883.75 353.5 A 58.92 58.92 0 0 0 942.67 412.42" fill="#d9e0fa"/><path d="M 942.67 471.33 A 117.83 117.83 0 0 1  1060.5 353.5 L 942.67 471.33 A 117.83 117.83 0 0 0 1060.5 353.5" fill="#d9dffa"/><path d="M 1060.5 353.5 A 117.83 117.83 0 0 1  1178.33 471.33 L 1060.5 353.5 A 117.83 117.83 0 0 0 1178.33 471.33" fill="#ffffff"/><path d="M 1178.33 353.5 A 117.83 117.83 0 0 1  1296.1599999999999 471.33 L 1178.33 353.5 A 117.83 117.83 0 0 0 1296.1599999999999 471.33" fill="#b1bef5"/><path d="M 235.67 471.33 A 117.83 117.83 0 0 1  353.5 589.16 L 235.67 471.33 A 117.83 117.83 0 0 0 353.5 589.16" fill="#768ded"/><path d="M 471.33 471.33 A 117.83 117.83 0 0 1  589.16 589.16 L 471.33 471.33 A 117.83 117.83 0 0 0 589.16 589.16" fill="#a5b5f3"/><path d="M 707 589.16 A 117.83 117.83 0 0 1  824.83 471.33 L 707 589.16 A 117.83 117.83 0 0 0 824.83 471.33" fill="#5773e9"/><path d="M 353.5 589.17 A 117.83 117.83 0 0 1  471.33 707 L 353.5 589.17 A 117.83 117.83 0 0 0 471.33 707" fill="#ff784e"/><rect x="824.8333333333333" y="589.1666666666666" width="117.83333333333333" height="117.83333333333333" fill="#ffffff"/><path d="M 824.83 648.08 A 58.92 58.92 0 0 1  883.75 707 L 824.83 648.08 A 58.92 58.92 0 0 0 883.75 707" fill="#ffa184"/></g></svg>