<?xml version="1.0" standalone="no"?><svg xmlns:xlink="http://www.w3.org/1999/xlink" xmlns="http://www.w3.org/2000/svg" viewBox="0 0 1900 950" preserveAspectRatio="xMaxYMax slice"><g transform="scale(1.3437057991513437)"><rect x="0" y="0" width="1414" height="707" fill="#9adefe"/><rect x="88.38" y="0" width="88.38" height="88.38" fill="#5083ed"/><polygon points="265.13,0 265.13,88.38 176.75,88.38" fill="#67a0f3"/><path d="M 353.5 0 A 88.38 88.38 0 0 0 441.88 88.38 L 441.88 0" fill="#3792ff"/><path d="M 441.88 88.38 A 88.38 88.38 0 0 1  530.26 0 L 441.88 88.38 A 88.38 88.38 0 0 0 530.26 0" fill="#4272ea"/><polygon points="618.63,0 707.01,88.38 618.63,88.38" fill="#96d9fd"/><rect x="707" y="0" width="88.375" height="88.375" fill="#9adefe"/><polygon points="751.19,0 795.3800000000001,44.19 751.19,44.19" fill="#2d59e6"/><polygon points="707,44.19 751.19,44.19 707,88.38" fill="#2752e4"/><polygon points="751.19,44.19 795.3800000000001,44.19 795.3800000000001,88.38" fill="#7cc7fe"/><rect x="795.38" y="0" width="88.38" height="88.38" fill="#75c2fe"/><path d="M 883.75 88.38 A 88.38 88.38 0 0 1  972.13 0 L 972.13 88.38" fill="#60b2ff"/><rect x="1060.5" y="0" width="88.38" height="88.38" fill="#4ea3ff"/><rect x="1237.25" y="0" width="88.38" height="88.38" fill="#6da8f4"/><rect x="0" y="88.375" width="88.375" height="88.375" fill="#9adefe"/><path d="M 44.19 132.57 A 44.19 44.19 0 0 1  88.38 88.38 L 88.38 132.57" fill="#419aff"/><path d="M 0 176.75 A 44.19 44.19 0 0 0 44.19 132.56 L 0 132.56" fill="#6ab9fe"/><path d="M 44.19 132.56 A 44.19 44.19 0 0 0 88.38 176.75 L 88.38 132.56" fill="#5084ee"/><polygon points="88.38,88.38 176.76,88.38 176.76,176.76" fill="#4373eb"/><rect x="176.75" y="88.38" width="88.38" height="88.38" fill="#5caeff"/><polygon points="353.51,88.38 353.51,176.76 265.13,176.76" fill="#80bef8"/><rect x="353.5" y="88.375" width="88.375" height="88.375" fill="#9adefe"/><path d="M 353.5 132.57 A 44.19 44.19 0 0 1 397.69 88.38 L 397.69 99.4275 A 33.1425 33.1425 0 0 0 364.5475 132.57" fill="#8acbfb"/><path d="M 353.5 132.56 A 44.19 44.19 0 0 0 397.69 176.75 L 397.69 165.7025 A 33.1425 33.1425 0 0 1 364.5475 132.56" fill="#5083ed"/><path d="M 397.69 176.75 A 44.19 44.19 0 0 0 441.88 132.56 L 430.8325 132.56 A 33.1425 33.1425 0 0 1 397.69 165.7025" fill="#3490ff"/><path d="M 441.88 88.38 A 88.38 88.38 0 0 1 530.26 176.76 L 441.88 176.76" fill="#4e80ed"/><polygon points="530.25,88.38 618.63,88.38 618.63,176.76" fill="#7ac5fe"/><path d="M 618.63 176.76 A 88.38 88.38 0 0 1  707.01 88.38 L 707.01 176.76" fill="#58abff"/><path d="M 707 176.76 A 88.38 88.38 0 0 0 795.38 88.38 L 707 88.38" fill="#2d59e6"/><polygon points="1060.51,88.38 1060.51,176.76 972.13,176.76" fill="#5589ef"/><rect x="1060.5" y="88.38" width="88.38" height="88.38" fill="#93d6fc"/><rect x="1148.88" y="88.38" width="88.38" height="88.38" fill="#58acff"/><polygon points="1325.63,88.38 1414.0100000000002,176.76 1325.63,176.76" fill="#6aa4f3"/><rect x="176.75" y="176.75" width="88.375" height="88.375" fill="#9adefe"/><polygon points="220.94,176.75 220.94,220.94 176.75,220.94" fill="#4ba1ff"/><polygon points="220.94,176.75 265.13,220.94 220.94,220.94" fill="#254fe4"/><polygon points="176.75,220.94 220.94,220.94 220.94,265.13" fill="#8dcefb"/><rect x="353.5" y="176.75" width="88.375" height="88.375" fill="#9adefe"/><path d="M 353.5 220.94 A 44.19 44.19 0 0 1 397.69 176.75 L 397.69 187.7975 A 33.1425 33.1425 0 0 0 364.5475 220.94" fill="#649bf2"/><path d="M 397.69 176.75 A 44.19 44.19 0 0 1 441.88 220.94 L 430.8325 220.94 A 33.1425 33.1425 0 0 0 397.69 187.7975" fill="#87c7fa"/><path d="M 353.5 220.94 A 44.19 44.19 0 0 0 397.69 265.13 L 397.69 254.08249999999998 A 33.1425 33.1425 0 0 1 364.5475 220.94" fill="#60b1ff"/><path d="M 397.69 265.13 A 44.19 44.19 0 0 0 441.88 220.94 L 430.8325 220.94 A 33.1425 33.1425 0 0 1 397.69 254.08249999999998" fill="#4fa4ff"/><path d="M 530.25 265.13 A 88.38 88.38 0 0 0 618.63 176.75 L 530.25 176.75" fill="#6faaf5"/><path d="M 795.38 176.75 A 88.38 88.38 0 0 1 883.76 265.13 L 795.38 265.13" fill="#7ebbf8"/><rect x="883.75" y="176.75" width="88.375" height="88.375" fill="#9adefe"/><path d="M 883.75 220.94 A 44.19 44.19 0 0 1 927.94 176.75 L 927.94 187.7975 A 33.1425 33.1425 0 0 0 894.7975 220.94" fill="#4677eb"/><path d="M 927.94 176.75 A 44.19 44.19 0 0 1 972.1300000000001 220.94 L 961.0825000000001 220.94 A 33.1425 33.1425 0 0 0 927.94 187.7975" fill="#2853e5"/><path d="M 883.75 220.94 A 44.19 44.19 0 0 0 927.94 265.13 L 927.94 254.08249999999998 A 33.1425 33.1425 0 0 1 894.7975 220.94" fill="#4ea4ff"/><path d="M 927.94 265.13 A 44.19 44.19 0 0 0 972.1300000000001 220.94 L 961.0825000000001 220.94 A 33.1425 33.1425 0 0 1 927.94 254.08249999999998" fill="#2049e3"/><polygon points="972.13,176.75 1060.51,176.75 1060.51,265.13" fill="#8ad2fe"/><rect x="1060.5" y="176.75" width="88.375" height="88.375" fill="#9adefe"/><rect x="1148.875" y="176.75" width="88.375" height="88.375" fill="#9adefe"/><path d="M 1148.88 176.75 A 44.19 44.19 0 0 1 1193.0700000000002 220.94 L 1148.88 220.94" fill="#3490ff"/><path d="M 1193.06 220.94 A 44.19 44.19 0 0 1  1237.25 176.75 L 1237.25 220.94" fill="#8ccdfb"/><path d="M 1148.88 265.13 A 44.19 44.19 0 0 0 1193.0700000000002 220.94 L 1148.88 220.94" fill="#3691ff"/><path d="M 1193.06 220.94 A 44.19 44.19 0 0 0 1237.25 265.13 L 1237.25 220.94" fill="#8bd3fe"/><path d="M 1237.25 176.75 A 88.38 88.38 0 0 0 1325.63 265.13 L 1325.63 176.75" fill="#72adf5"/><rect x="1325.625" y="176.75" width="88.375" height="88.375" fill="#9adefe"/><path d="M 1369.81 176.75 A 44.19 44.19 0 0 1 1414 220.94 L 1402.9524999999999 220.94 A 33.1425 33.1425 0 0 0 1369.81 187.7975" fill="#50a5ff"/><path d="M 1325.63 220.94 A 44.19 44.19 0 0 0 1369.8200000000002 265.13 L 1369.8200000000002 254.08249999999998 A 33.1425 33.1425 0 0 1 1336.6775 220.94" fill="#2e59e6"/><path d="M 176.75 353.51 A 88.38 88.38 0 0 1  265.13 265.13 L 265.13 353.51" fill="#1a41e1"/><path d="M 353.5 353.51 A 88.38 88.38 0 0 0 441.88 265.13 L 353.5 265.13" fill="#5185ee"/><polygon points="707.01,265.13 707.01,353.51 618.63,353.51" fill="#3f6eea"/><path d="M 707 353.51 A 88.38 88.38 0 0 0 795.38 265.13 L 707 265.13" fill="#4da3ff"/><path d="M 795.38 265.13 A 88.38 88.38 0 0 1  883.76 353.51 L 795.38 265.13 A 88.38 88.38 0 0 0 883.76 353.51" fill="#1c44e2"/><rect x="883.75" y="265.125" width="88.375" height="88.375" fill="#9adefe"/><path d="M 883.75 309.31 A 44.19 44.19 0 0 0 927.94 353.5 L 927.94 342.4525 A 33.1425 33.1425 0 0 1 894.7975 309.31" fill="#87d0fe"/><path d="M 972.13 265.13 A 88.38 88.38 0 0 0 1060.51 353.51 L 1060.51 265.13" fill="#75b1f6"/><rect x="1237.25" y="265.125" width="88.375" height="88.375" fill="#9adefe"/><path d="M 1281.44 309.32 A 44.19 44.19 0 0 1  1325.63 265.13 L 1325.63 309.32" fill="#82ccfe"/><path d="M 1237.25 353.5 A 44.19 44.19 0 0 0 1281.44 309.31 L 1237.25 309.31" fill="#419aff"/><polygon points="1325.63,265.13 1414.0100000000002,265.13 1325.63,353.51" fill="#5eb0ff"/><rect x="88.375" y="353.5" width="88.375" height="88.375" fill="#9adefe"/><polygon points="132.57,353.5 132.57,397.69 88.38,397.69" fill="#4475eb"/><polygon points="132.56,353.5 176.75,353.5 132.56,397.69" fill="#4475eb"/><polygon points="88.38,397.69 132.57,397.69 132.57,441.88" fill="#5c92f0"/><polygon points="132.56,397.69 176.75,441.88 132.56,441.88" fill="#94dafe"/><path d="M 265.13 353.5 A 88.38 88.38 0 0 1  353.51 441.88 L 265.13 353.5 A 88.38 88.38 0 0 0 353.51 441.88" fill="#6cbbfe"/><polygon points="353.5,353.5 441.88,353.5 353.5,441.88" fill="#8bd2fe"/><rect x="441.88" y="353.5" width="88.38" height="88.38" fill="#7dbaf8"/><rect x="618.63" y="353.5" width="88.38" height="88.38" fill="#5d93f0"/><path d="M 707 441.88 A 88.38 88.38 0 0 0 795.38 353.5 L 707 353.5" fill="#64b5ff"/><rect x="795.375" y="353.5" width="88.375" height="88.375" fill="#9adefe"/><polygon points="839.5699999999999,353.5 839.5699999999999,397.69 795.38,397.69" fill="#81c0f8"/><polygon points="795.38,397.69 839.5699999999999,397.69 839.5699999999999,441.88" fill="#83c1f9"/><path d="M 972.13 353.5 A 88.38 88.38 0 0 1 1060.51 441.88 L 972.13 441.88" fill="#7fc9fe"/><rect x="1148.875" y="353.5" width="88.375" height="88.375" fill="#9adefe"/><polygon points="1148.88,397.69 1193.0700000000002,397.69 1193.0700000000002,441.88" fill="#50a5ff"/><polygon points="1193.06,397.69 1237.25,397.69 1193.06,441.88" fill="#56aaff"/><rect x="1325.63" y="353.5" width="88.38" height="88.38" fill="#6ca6f4"/><path d="M 88.38 530.26 A 88.38 88.38 0 0 1  176.76 441.88 L 88.38 530.26 A 88.38 88.38 0 0 0 176.76 441.88" fill="#669ef2"/><rect x="176.75" y="441.875" width="88.375" height="88.375" fill="#9adefe"/><path d="M 176.75 441.88 A 44.19 44.19 0 0 0 220.94 486.07 L 220.94 441.88" fill="#92d8fe"/><path d="M 176.75 530.25 A 44.19 44.19 0 0 1  220.94 486.06 L 220.94 530.25" fill="#7dbbf8"/><path d="M 220.94 486.06 A 44.19 44.19 0 0 1 265.13 530.25 L 220.94 530.25" fill="#2752e4"/><rect x="265.125" y="441.875" width="88.375" height="88.375" fill="#9adefe"/><path d="M 265.13 486.06 A 44.19 44.19 0 0 0 309.32 530.25 L 309.32 486.06" fill="#2852e5"/><path d="M 309.31 530.25 A 44.19 44.19 0 0 0 353.5 486.06 L 309.31 486.06" fill="#629af2"/><polygon points="353.5,441.88 441.88,441.88 353.5,530.26" fill="#4fa4ff"/><polygon points="441.88,441.88 530.26,530.26 441.88,530.26" fill="#325ee7"/><polygon points="530.25,441.88 618.63,441.88 530.25,530.26" fill="#325ee7"/><path d="M 618.63 530.26 A 88.38 88.38 0 0 0 707.01 441.88 L 618.63 441.88" fill="#76b2f6"/><rect x="707" y="441.875" width="88.375" height="88.375" fill="#9adefe"/><path d="M 751.19 441.88 A 44.19 44.19 0 0 0 795.3800000000001 486.07 L 795.3800000000001 441.88" fill="#68b7fe"/><path d="M 751.19 530.25 A 44.19 44.19 0 0 1  795.3800000000001 486.06 L 795.3800000000001 530.25" fill="#74c1fe"/><polygon points="795.38,441.88 883.76,530.26 795.38,530.26" fill="#3e97ff"/><rect x="1060.5" y="441.875" width="88.375" height="88.375" fill="#9adefe"/><polygon points="1060.5,486.06 1104.69,486.06 1104.69,530.25" fill="#4171ea"/><polygon points="1104.69,486.06 1148.88,530.25 1104.69,530.25" fill="#4d80ed"/><path d="M 1148.88 530.26 A 88.38 88.38 0 0 0 1237.2600000000002 441.88 L 1148.88 441.88" fill="#8ed4fe"/><rect x="0" y="530.25" width="88.375" height="88.375" fill="#9adefe"/><path d="M 0 574.44 A 44.19 44.19 0 0 1 44.19 530.25 L 44.19 541.2975 A 33.1425 33.1425 0 0 0 11.0475 574.44" fill="#5baeff"/><path d="M 44.19 530.25 A 44.19 44.19 0 0 1 88.38 574.44 L 77.3325 574.44 A 33.1425 33.1425 0 0 0 44.19 541.2975" fill="#73aef5"/><polygon points="353.5,530.25 441.88,618.63 353.5,618.63" fill="#89d1fe"/><path d="M 441.88 530.25 A 88.38 88.38 0 0 1 530.26 618.63 L 441.88 618.63" fill="#5489ee"/><rect x="883.75" y="530.25" width="88.38" height="88.38" fill="#91d7fe"/><rect x="972.13" y="530.25" width="88.38" height="88.38" fill="#8ecffb"/><rect x="1060.5" y="530.25" width="88.38" height="88.38" fill="#91d7fe"/><rect x="1148.88" y="530.25" width="88.38" height="88.38" fill="#87d0fe"/><polygon points="1325.63,530.25 1325.63,618.63 1237.25,618.63" fill="#4e81ed"/><rect x="1325.63" y="530.25" width="88.38" height="88.38" fill="#679ff3"/><rect x="0" y="618.625" width="88.375" height="88.375" fill="#9adefe"/><polygon points="44.19,618.63 44.19,662.8199999999999 0,662.8199999999999" fill="#3b95ff"/><polygon points="44.19,618.63 88.38,662.8199999999999 44.19,662.8199999999999" fill="#3a68e9"/><polygon points="44.19,662.81 88.38,662.81 44.19,707" fill="#5084ee"/><rect x="88.38" y="618.63" width="88.38" height="88.38" fill="#8dcefb"/><rect x="176.75" y="618.63" width="88.38" height="88.38" fill="#84cdfe"/><rect x="441.88" y="618.63" width="88.38" height="88.38" fill="#598eef"/><rect x="618.625" y="618.625" width="88.375" height="88.375" fill="#9adefe"/><polygon points="662.8199999999999,618.63 662.8199999999999,662.8199999999999 618.63,662.8199999999999" fill="#1e46e2"/><polygon points="618.63,662.81 662.8199999999999,662.81 662.8199999999999,707" fill="#97dcfe"/><polygon points="662.81,662.81 707,707 662.81,707" fill="#73c0fe"/><path d="M 795.38 618.63 A 88.38 88.38 0 0 1  883.76 707.01 L 795.38 618.63 A 88.38 88.38 0 0 0 883.76 707.01" fill="#7ac5fe"/><path d="M 883.75 618.63 A 88.38 88.38 0 0 1 972.13 707.01 L 883.75 707.01" fill="#6ea9f4"/><rect x="1060.5" y="618.625" width="88.375" height="88.375" fill="#9adefe"/><polygon points="1104.69,618.63 1148.88,618.63 1104.69,662.8199999999999" fill="#406fea"/><polygon points="1060.5,662.81 1104.69,662.81 1104.69,707" fill="#4474eb"/><polygon points="1104.69,662.81 1148.88,707 1104.69,707" fill="#3360e7"/><path d="M 1237.25 707.01 A 88.38 88.38 0 0 1  1325.63 618.63 L 1325.63 707.01" fill="#4f83ed"/><polygon points="1414.0100000000002,618.63 1414.0100000000002,707.01 1325.63,707.01" fill="#50a5ff"/></g></svg>