<?xml version="1.0" standalone="no"?><svg xmlns:xlink="http://www.w3.org/1999/xlink" xmlns="http://www.w3.org/2000/svg" viewBox="0 0 1900 950" preserveAspectRatio="xMaxYMax slice"><g transform="scale(1.3437057991513437)"><rect x="0" y="0" width="1414" height="707" fill="#7dc6e8"/><rect x="707" y="88.375" width="88.375" height="88.375" fill="#7dc6e8"/><path d="M 751.19 132.57 A 44.19 44.19 0 0 0 795.3800000000001 88.38 L 751.19 88.38" fill="#7ac4e9"/><path d="M 751.19 132.56 A 44.19 44.19 0 0 1 795.3800000000001 176.75 L 751.19 176.75" fill="#3a94fd"/><rect x="1148.875" y="88.375" width="88.375" height="88.375" fill="#7dc6e8"/><rect x="353.5" y="176.75" width="88.375" height="88.375" fill="#7dc6e8"/><path d="M 397.69 176.75 A 44.19 44.19 0 0 0 441.88 220.94 L 441.88 176.75" fill="#7ac4e9"/><path d="M 397.69 265.13 A 44.19 44.19 0 0 1  441.88 220.94 L 441.88 265.13" fill="#2753e2"/><rect x="618.625" y="176.75" width="88.375" height="88.375" fill="#7dc6e8"/><path d="M 618.63 176.75 A 44.19 44.19 0 0 0 662.8199999999999 220.94 L 662.8199999999999 176.75" fill="#74bae7"/><path d="M 618.63 265.13 A 44.19 44.19 0 0 1  662.8199999999999 220.94 L 662.8199999999999 265.13" fill="#78c2ea"/><path d="M 662.81 220.94 A 44.19 44.19 0 0 1 707 265.13 L 662.81 265.13" fill="#60b1f1"/><rect x="707" y="176.75" width="88.375" height="88.375" fill="#7dc6e8"/><polygon points="751.19,176.75 751.19,220.94 707,220.94" fill="#1e47e1"/><polygon points="751.19,176.75 795.3800000000001,176.75 751.19,220.94" fill="#4379e4"/><polygon points="751.19,220.94 795.3800000000001,265.13 751.19,265.13" fill="#5caef2"/><rect x="883.75" y="176.75" width="88.375" height="88.375" fill="#7dc6e8"/><path d="M 883.75 220.94 A 44.19 44.19 0 0 0 927.94 265.13 L 927.94 254.08249999999998 A 33.1425 33.1425 0 0 1 894.7975 220.94" fill="#3c96fc"/><path d="M 927.94 265.13 A 44.19 44.19 0 0 0 972.1300000000001 220.94 L 961.0825000000001 220.94 A 33.1425 33.1425 0 0 1 927.94 254.08249999999998" fill="#73bfeb"/><rect x="972.125" y="176.75" width="88.375" height="88.375" fill="#7dc6e8"/><path d="M 972.13 176.75 A 44.19 44.19 0 0 0 1016.3199999999999 220.94 L 1016.3199999999999 176.75" fill="#429afa"/><path d="M 1016.31 220.94 A 44.19 44.19 0 0 0 1060.5 176.75 L 1016.31 176.75" fill="#78c0e8"/><path d="M 972.13 265.13 A 44.19 44.19 0 0 1  1016.3199999999999 220.94 L 1016.3199999999999 265.13" fill="#1e47e1"/><rect x="1148.875" y="176.75" width="88.375" height="88.375" fill="#7dc6e8"/><path d="M 1148.88 220.94 A 44.19 44.19 0 0 1 1193.0700000000002 176.75 L 1193.0700000000002 187.7975 A 33.1425 33.1425 0 0 0 1159.9275 220.94" fill="#5c9ae6"/><rect x="441.875" y="265.125" width="88.375" height="88.375" fill="#7dc6e8"/><polygon points="486.06,309.31 530.25,309.31 530.25,353.5" fill="#4a82e4"/><rect x="530.25" y="265.125" width="88.375" height="88.375" fill="#7dc6e8"/><path d="M 530.25 309.32 A 44.19 44.19 0 0 0 574.44 265.13 L 530.25 265.13" fill="#4e87e5"/><path d="M 574.44 265.13 A 44.19 44.19 0 0 0 618.6300000000001 309.32 L 618.6300000000001 265.13" fill="#3f74e4"/><path d="M 530.25 309.31 A 44.19 44.19 0 0 1 574.44 353.5 L 530.25 353.5" fill="#4176e4"/><path d="M 574.44 353.5 A 44.19 44.19 0 0 1  618.6300000000001 309.31 L 618.6300000000001 353.5" fill="#4075e4"/><rect x="707" y="265.125" width="88.375" height="88.375" fill="#7dc6e8"/><path d="M 707 309.32 A 44.19 44.19 0 0 1 751.19 265.13 L 751.19 276.1775 A 33.1425 33.1425 0 0 0 718.0475 309.32" fill="#64b3f0"/><path d="M 751.19 265.13 A 44.19 44.19 0 0 1 795.3800000000001 309.32 L 784.3325000000001 309.32 A 33.1425 33.1425 0 0 0 751.19 276.1775" fill="#4378e4"/><path d="M 707 309.31 A 44.19 44.19 0 0 0 751.19 353.5 L 751.19 342.4525 A 33.1425 33.1425 0 0 1 718.0475 309.31" fill="#50a5f6"/><path d="M 751.19 353.5 A 44.19 44.19 0 0 0 795.3800000000001 309.31 L 784.3325000000001 309.31 A 33.1425 33.1425 0 0 1 751.19 342.4525" fill="#4277e4"/><rect x="795.375" y="265.125" width="88.375" height="88.375" fill="#7dc6e8"/><polygon points="839.5699999999999,265.13 839.5699999999999,309.32 795.38,309.32" fill="#439bfa"/><polygon points="795.38,309.31 839.5699999999999,309.31 839.5699999999999,353.5" fill="#63b3f0"/><polygon points="839.56,309.31 883.75,309.31 839.56,353.5" fill="#79c3e9"/><rect x="883.75" y="265.125" width="88.375" height="88.375" fill="#7dc6e8"/><polygon points="927.94,265.13 927.94,309.32 883.75,309.32" fill="#64a4e6"/><polygon points="927.94,265.13 972.1300000000001,265.13 927.94,309.32" fill="#4277e4"/><polygon points="883.75,309.31 927.94,309.31 927.94,353.5" fill="#71bdec"/><polygon points="927.94,309.31 972.1300000000001,353.5 927.94,353.5" fill="#64b3f0"/><rect x="972.125" y="265.125" width="88.375" height="88.375" fill="#7dc6e8"/><path d="M 972.13 309.32 A 44.19 44.19 0 0 1 1016.3199999999999 265.13 L 1016.3199999999999 276.1775 A 33.1425 33.1425 0 0 0 983.1775 309.32" fill="#5793e5"/><path d="M 1016.31 265.13 A 44.19 44.19 0 0 1 1060.5 309.32 L 1049.4524999999999 309.32 A 33.1425 33.1425 0 0 0 1016.31 276.1775" fill="#6baee7"/><path d="M 1016.31 353.5 A 44.19 44.19 0 0 0 1060.5 309.31 L 1049.4524999999999 309.31 A 33.1425 33.1425 0 0 1 1016.31 342.4525" fill="#459cf9"/><rect x="1060.5" y="265.125" width="88.375" height="88.375" fill="#7dc6e8"/><polygon points="1104.69,265.13 1104.69,309.32 1060.5,309.32" fill="#5691e5"/><polygon points="1104.69,309.31 1148.88,309.31 1148.88,353.5" fill="#72b7e7"/><rect x="1237.25" y="265.125" width="88.375" height="88.375" fill="#7dc6e8"/><rect x="176.75" y="353.5" width="88.375" height="88.375" fill="#7dc6e8"/><circle cx="198.845" cy="419.78499999999997" r="22.095" fill="#3994fd"/><rect x="265.125" y="353.5" width="88.375" height="88.375" fill="#7dc6e8"/><path d="M 265.13 397.69 A 44.19 44.19 0 0 0 309.32 441.88 L 309.32 430.8325 A 33.1425 33.1425 0 0 1 276.1775 397.69" fill="#2550e2"/><rect x="441.875" y="353.5" width="88.375" height="88.375" fill="#7dc6e8"/><circle cx="463.975" cy="375.595" r="22.095" fill="#72beeb"/><rect x="486.06" y="353.5" width="44.19" height="44.19" fill="#5f9fe6"/><circle cx="463.975" cy="419.78499999999997" r="22.095" fill="#6ebbed"/><rect x="486.06" y="397.69" width="44.19" height="44.19" fill="#7bc4e9"/><rect x="530.25" y="353.5" width="88.375" height="88.375" fill="#7dc6e8"/><polygon points="574.44,353.5 574.44,397.69 530.25,397.69" fill="#469df9"/><polygon points="574.44,353.5 618.6300000000001,353.5 574.44,397.69" fill="#7bc4e9"/><polygon points="530.25,397.69 574.44,397.69 574.44,441.88" fill="#4ba1f8"/><polygon points="574.44,397.69 618.6300000000001,441.88 574.44,441.88" fill="#5591e5"/><rect x="618.625" y="353.5" width="88.375" height="88.375" fill="#7dc6e8"/><polygon points="662.8199999999999,353.5 662.8199999999999,397.69 618.63,397.69" fill="#5691e5"/><polygon points="662.81,353.5 707,397.69 662.81,397.69" fill="#548fe5"/><polygon points="618.63,397.69 662.8199999999999,397.69 662.8199999999999,441.88" fill="#79c1e8"/><polygon points="662.81,397.69 707,397.69 662.81,441.88" fill="#5aacf3"/><rect x="707" y="353.5" width="88.375" height="88.375" fill="#7dc6e8"/><polygon points="751.19,353.5 751.19,397.69 707,397.69" fill="#2550e2"/><polygon points="751.19,353.5 795.3800000000001,353.5 751.19,397.69" fill="#6db0e7"/><polygon points="707,397.69 751.19,397.69 751.19,441.88" fill="#2d5be2"/><polygon points="751.19,397.69 795.3800000000001,441.88 751.19,441.88" fill="#65a6e6"/><rect x="795.375" y="353.5" width="88.375" height="88.375" fill="#7dc6e8"/><path d="M 795.38 353.5 A 44.19 44.19 0 0 1 839.5699999999999 397.69 L 795.38 397.69" fill="#457ce4"/><path d="M 839.56 397.69 A 44.19 44.19 0 0 1  883.75 353.5 L 883.75 397.69" fill="#4277e4"/><path d="M 795.38 441.88 A 44.19 44.19 0 0 0 839.5699999999999 397.69 L 795.38 397.69" fill="#79c1e8"/><path d="M 839.56 397.69 A 44.19 44.19 0 0 0 883.75 441.88 L 883.75 397.69" fill="#3993fd"/><rect x="883.75" y="353.5" width="88.375" height="88.375" fill="#7dc6e8"/><polygon points="927.94,353.5 927.94,397.69 883.75,397.69" fill="#224de2"/><polygon points="927.94,353.5 972.1300000000001,397.69 927.94,397.69" fill="#7bc3e8"/><polygon points="883.75,397.69 927.94,397.69 927.94,441.88" fill="#76c1ea"/><polygon points="927.94,397.69 972.1300000000001,397.69 927.94,441.88" fill="#7bc5e9"/><rect x="972.125" y="353.5" width="88.375" height="88.375" fill="#7dc6e8"/><path d="M 972.13 397.69 A 44.19 44.19 0 0 1  1016.3199999999999 353.5 L 1016.3199999999999 397.69" fill="#2450e2"/><path d="M 972.13 397.69 A 44.19 44.19 0 0 0 1016.3199999999999 441.88 L 1016.3199999999999 397.69" fill="#50a4f6"/><path d="M 1016.31 441.88 A 44.19 44.19 0 0 0 1060.5 397.69 L 1016.31 397.69" fill="#69b7ee"/><rect x="1148.875" y="353.5" width="88.375" height="88.375" fill="#7dc6e8"/><polygon points="1193.0700000000002,353.5 1193.0700000000002,397.69 1148.88,397.69" fill="#72beec"/><rect x="1325.625" y="353.5" width="88.375" height="88.375" fill="#7dc6e8"/><rect x="176.75" y="441.875" width="88.375" height="88.375" fill="#7dc6e8"/><path d="M 176.75 530.25 A 44.19 44.19 0 0 1  220.94 486.06 L 220.94 530.25" fill="#4277e4"/><rect x="353.5" y="441.875" width="88.375" height="88.375" fill="#7dc6e8"/><path d="M 353.5 441.88 A 44.19 44.19 0 0 0 397.69 486.07 L 397.69 441.88" fill="#56a9f4"/><path d="M 397.69 486.07 A 44.19 44.19 0 0 0 441.88 441.88 L 397.69 441.88" fill="#66b5ef"/><path d="M 353.5 530.25 A 44.19 44.19 0 0 1  397.69 486.06 L 397.69 530.25" fill="#499ff8"/><path d="M 397.69 486.06 A 44.19 44.19 0 0 1 441.88 530.25 L 397.69 530.25" fill="#439bfa"/><rect x="441.875" y="441.875" width="88.375" height="88.375" fill="#7dc6e8"/><path d="M 441.88 486.07 A 44.19 44.19 0 0 1 486.07 441.88 L 486.07 452.9275 A 33.1425 33.1425 0 0 0 452.9275 486.07" fill="#3161e3"/><path d="M 441.88 486.06 A 44.19 44.19 0 0 0 486.07 530.25 L 486.07 519.2025 A 33.1425 33.1425 0 0 1 452.9275 486.06" fill="#72beeb"/><rect x="530.25" y="441.875" width="88.375" height="88.375" fill="#7dc6e8"/><polygon points="574.44,441.88 574.44,486.07 530.25,486.07" fill="#73bfeb"/><polygon points="530.25,486.06 574.44,486.06 530.25,530.25" fill="#2f5ee3"/><polygon points="574.44,486.06 618.6300000000001,486.06 618.6300000000001,530.25" fill="#76bde8"/><rect x="618.625" y="441.875" width="88.375" height="88.375" fill="#7dc6e8"/><path d="M 618.63 486.07 A 44.19 44.19 0 0 0 662.8199999999999 441.88 L 618.63 441.88" fill="#3464e3"/><path d="M 662.81 441.88 A 44.19 44.19 0 0 0 707 486.07 L 707 441.88" fill="#4176e4"/><path d="M 618.63 486.06 A 44.19 44.19 0 0 1 662.8199999999999 530.25 L 618.63 530.25" fill="#79c3e9"/><path d="M 662.81 530.25 A 44.19 44.19 0 0 1  707 486.06 L 707 530.25" fill="#55a8f4"/><rect x="795.375" y="441.875" width="88.375" height="88.375" fill="#7dc6e8"/><path d="M 795.38 486.07 A 44.19 44.19 0 0 1  839.5699999999999 441.88 L 839.5699999999999 486.07" fill="#2855e2"/><path d="M 839.56 441.88 A 44.19 44.19 0 0 1 883.75 486.07 L 839.56 486.07" fill="#7ac2e8"/><path d="M 795.38 486.06 A 44.19 44.19 0 0 0 839.5699999999999 530.25 L 839.5699999999999 486.06" fill="#69abe7"/><path d="M 839.56 530.25 A 44.19 44.19 0 0 0 883.75 486.06 L 839.56 486.06" fill="#5793e5"/><rect x="883.75" y="441.875" width="88.375" height="88.375" fill="#7dc6e8"/><polygon points="927.94,441.88 972.1300000000001,486.07 927.94,486.07" fill="#2753e2"/><polygon points="883.75,486.06 927.94,486.06 883.75,530.25" fill="#7bc4e9"/><polygon points="927.94,486.06 972.1300000000001,486.06 972.1300000000001,530.25" fill="#6baee7"/><rect x="1237.25" y="441.875" width="88.375" height="88.375" fill="#7dc6e8"/><path d="M 1237.25 486.07 A 44.19 44.19 0 0 1 1281.44 441.88 L 1281.44 452.9275 A 33.1425 33.1425 0 0 0 1248.2975 486.07" fill="#3792fe"/><rect x="88.375" y="530.25" width="88.375" height="88.375" fill="#7dc6e8"/><polygon points="132.57,530.25 132.57,574.44 88.38,574.44" fill="#5eaff2"/><rect x="441.875" y="530.25" width="88.375" height="88.375" fill="#7dc6e8"/><rect x="530.25" y="530.25" width="88.375" height="88.375" fill="#7dc6e8"/><polygon points="530.25,574.44 574.44,574.44 574.44,618.6300000000001" fill="#61b1f1"/><polygon points="574.44,574.44 618.6300000000001,574.44 574.44,618.6300000000001" fill="#6db1e7"/><rect x="707" y="530.25" width="88.375" height="88.375" fill="#7dc6e8"/><polygon points="751.19,530.25 795.3800000000001,574.44 751.19,574.44" fill="#60b0f1"/><polygon points="751.19,574.44 795.3800000000001,574.44 751.19,618.6300000000001" fill="#55a8f5"/><rect x="795.375" y="530.25" width="88.375" height="88.375" fill="#7dc6e8"/><polygon points="839.5699999999999,530.25 839.5699999999999,574.44 795.38,574.44" fill="#5aacf3"/><polygon points="839.56,530.25 883.75,574.44 839.56,574.44" fill="#5d9be6"/><polygon points="795.38,574.44 839.5699999999999,574.44 839.5699999999999,618.6300000000001" fill="#479ef9"/><polygon points="839.56,574.44 883.75,574.44 839.56,618.6300000000001" fill="#3160e3"/><rect x="972.125" y="530.25" width="88.375" height="88.375" fill="#7dc6e8"/><rect x="1148.875" y="530.25" width="88.375" height="88.375" fill="#7dc6e8"/><rect x="530.25" y="618.625" width="88.375" height="88.375" fill="#7dc6e8"/><path d="M 530.25 662.8199999999999 A 44.19 44.19 0 0 1  574.44 618.63 L 574.44 662.8199999999999" fill="#77bee8"/><path d="M 574.44 618.63 A 44.19 44.19 0 0 1 618.6300000000001 662.8199999999999 L 574.44 662.8199999999999" fill="#4ea3f7"/></g></svg>