<?xml version="1.0" standalone="no"?><svg xmlns:xlink="http://www.w3.org/1999/xlink" xmlns="http://www.w3.org/2000/svg" viewBox="0 0 1900 1187.5104977943581" preserveAspectRatio="xMaxYMax slice"><g transform="scale(1.6796470973046083)"><rect x="0" y="0" width="1131.2" height="707" fill="#2776BC"/><path d="M 424.2 70.7 A 70.7 70.7 0 0 0 494.9 141.4 L 494.9 70.7" fill="#aef4fe"/><rect x="494.90000000000003" y="70.7" width="70.7" height="70.7" fill="#2776BC"/><rect x="565.6" y="70.7" width="70.7" height="70.7" fill="#aef4fe"/><rect x="636.3000000000001" y="70.7" width="70.7" height="70.7" fill="#2776BC"/><rect x="424.2" y="141.4" width="70.7" height="70.7" fill="#02A9C1"/><rect x="494.90000000000003" y="141.4" width="70.7" height="70.7" fill="#2776BC"/><rect x="530.25" y="141.4" width="35.35" height="35.35" fill="#02A9C1"/><rect x="530.25" y="176.75" width="35.35" height="35.35" fill="#02A9C1"/><polygon points="636.3,141.4 707,212.10000000000002 636.3,212.10000000000002" fill="#02A9C1"/><rect x="707" y="141.4" width="70.7" height="70.7" fill="#2776BC"/><path d="M 742.35 176.75 A 35.35 35.35 0 0 1  777.7 141.4 L 777.7 176.75" fill="#02A9C1"/><path d="M 742.35 176.75 A 35.35 35.35 0 0 0 777.7 212.1 L 777.7 176.75" fill="#aef4fe"/><rect x="919.1" y="141.4" width="70.7" height="70.7" fill="#2776BC"/><path d="M 954.45 141.4 A 35.35 35.35 0 0 1 989.8000000000001 176.75 L 954.45 176.75" fill="#aef4fe"/><path d="M 919.1 176.75 A 35.35 35.35 0 0 0 954.45 212.1 L 954.45 176.75" fill="#02A9C1"/><rect x="424.20000000000005" y="212.10000000000002" width="70.7" height="70.7" fill="#2776BC"/><polygon points="424.2,247.45 459.55,247.45 424.2,282.8" fill="#aef4fe"/><polygon points="459.55,247.45 494.90000000000003,247.45 494.90000000000003,282.8" fill="#02A9C1"/><rect x="494.90000000000003" y="212.10000000000002" width="70.7" height="70.7" fill="#2776BC"/><polygon points="530.25,212.1 530.25,247.45 494.9,247.45" fill="#02A9C1"/><polygon points="530.25,212.1 565.6,247.45 530.25,247.45" fill="#02A9C1"/><polygon points="494.9,247.45 530.25,247.45 494.9,282.8" fill="#02A9C1"/><polygon points="530.25,247.45 565.6,247.45 565.6,282.8" fill="#aef4fe"/><polygon points="565.6,212.1 636.3000000000001,212.1 636.3000000000001,282.8" fill="#02A9C1"/><polygon points="707,212.1 777.7,212.1 777.7,282.8" fill="#02A9C1"/><path d="M 141.4 282.8 A 70.7 70.7 0 0 1 212.10000000000002 353.5 L 141.4 353.5" fill="#aef4fe"/><rect x="282.8" y="282.8" width="70.7" height="70.7" fill="#2776BC"/><path d="M 318.15 282.8 A 35.35 35.35 0 0 1 353.5 318.15000000000003 L 344.66249999999997 318.15000000000003 A 26.512500000000003 26.512500000000003 0 0 0 318.15 291.6375" fill="#aef4fe"/><path d="M 282.8 318.15 A 35.35 35.35 0 0 0 318.15000000000003 353.5 L 318.15000000000003 344.66249999999997 A 26.512500000000003 26.512500000000003 0 0 1 291.6375 318.15" fill="#aef4fe"/><path d="M 318.15 353.5 A 35.35 35.35 0 0 0 353.5 318.15 L 344.66249999999997 318.15 A 26.512500000000003 26.512500000000003 0 0 1 318.15 344.66249999999997" fill="#02A9C1"/><rect x="424.2" y="282.8" width="70.7" height="70.7" fill="#02A9C1"/><rect x="494.9" y="282.8" width="70.7" height="70.7" fill="#aef4fe"/><rect x="565.6" y="282.8" width="70.7" height="70.7" fill="#2776BC"/><polygon points="600.95,282.8 600.95,318.15000000000003 565.6,318.15000000000003" fill="#aef4fe"/><polygon points="600.95,282.8 636.3000000000001,282.8 600.95,318.15000000000003" fill="#aef4fe"/><polygon points="565.6,318.15 600.95,318.15 600.95,353.5" fill="#aef4fe"/><polygon points="600.95,318.15 636.3000000000001,353.5 600.95,353.5" fill="#aef4fe"/><rect x="636.3000000000001" y="282.8" width="70.7" height="70.7" fill="#2776BC"/><polygon points="671.65,282.8 671.65,318.15000000000003 636.3,318.15000000000003" fill="#02A9C1"/><polygon points="671.65,282.8 707,318.15000000000003 671.65,318.15000000000003" fill="#02A9C1"/><polygon points="636.3,318.15 671.65,318.15 671.65,353.5" fill="#aef4fe"/><polygon points="671.65,318.15 707,318.15 671.65,353.5" fill="#02A9C1"/><rect x="707" y="282.8" width="70.7" height="70.7" fill="#2776BC"/><path d="M 742.35 282.8 A 35.35 35.35 0 0 1 777.7 318.15000000000003 L 768.8625000000001 318.15000000000003 A 26.512500000000003 26.512500000000003 0 0 0 742.35 291.6375" fill="#aef4fe"/><path d="M 707 318.15 A 35.35 35.35 0 0 0 742.35 353.5 L 742.35 344.66249999999997 A 26.512500000000003 26.512500000000003 0 0 1 715.8375 318.15" fill="#aef4fe"/><path d="M 742.35 353.5 A 35.35 35.35 0 0 0 777.7 318.15 L 768.8625000000001 318.15 A 26.512500000000003 26.512500000000003 0 0 1 742.35 344.66249999999997" fill="#aef4fe"/><rect x="777.7" y="282.8" width="70.7" height="70.7" fill="#02A9C1"/><rect x="848.4000000000001" y="282.8" width="70.7" height="70.7" fill="#2776BC"/><polygon points="883.75,282.8 919.1,318.15000000000003 883.75,318.15000000000003" fill="#02A9C1"/><rect x="141.4" y="353.5" width="70.7" height="70.7" fill="#2776BC"/><polygon points="176.75,388.85 212.1,388.85 212.1,424.20000000000005" fill="#aef4fe"/><rect x="212.10000000000002" y="353.5" width="70.7" height="70.7" fill="#2776BC"/><rect x="282.8" y="353.5" width="70.7" height="70.7" fill="#2776BC"/><path d="M 282.8 388.85 A 35.35 35.35 0 0 1  318.15000000000003 353.5 L 318.15000000000003 388.85" fill="#aef4fe"/><path d="M 318.15 353.5 A 35.35 35.35 0 0 1 353.5 388.85 L 318.15 388.85" fill="#aef4fe"/><rect x="353.5" y="353.5" width="70.7" height="70.7" fill="#2776BC"/><polygon points="388.85,353.5 388.85,388.85 353.5,388.85" fill="#aef4fe"/><polygon points="388.85,353.5 424.20000000000005,388.85 388.85,388.85" fill="#02A9C1"/><polygon points="353.5,388.85 388.85,388.85 388.85,424.20000000000005" fill="#aef4fe"/><polygon points="388.85,388.85 424.20000000000005,388.85 388.85,424.20000000000005" fill="#aef4fe"/><rect x="424.2" y="353.5" width="70.7" height="70.7" fill="#02A9C1"/><polygon points="494.9,353.5 565.6,353.5 565.6,424.2" fill="#02A9C1"/><rect x="565.6" y="353.5" width="70.7" height="70.7" fill="#2776BC"/><polygon points="600.95,353.5 600.95,388.85 565.6,388.85" fill="#02A9C1"/><polygon points="600.95,353.5 636.3000000000001,353.5 600.95,388.85" fill="#02A9C1"/><polygon points="565.6,388.85 600.95,388.85 600.95,424.20000000000005" fill="#02A9C1"/><polygon points="600.95,388.85 636.3000000000001,424.20000000000005 600.95,424.20000000000005" fill="#02A9C1"/><rect x="636.3" y="353.5" width="70.7" height="70.7" fill="#02A9C1"/><polygon points="707,353.5 777.7,353.5 777.7,424.2" fill="#02A9C1"/><rect x="777.7" y="353.5" width="70.7" height="70.7" fill="#2776BC"/><path d="M 777.7 388.85 A 35.35 35.35 0 0 1 813.0500000000001 353.5 L 813.0500000000001 362.3375 A 26.512500000000003 26.512500000000003 0 0 0 786.5375 388.85" fill="#aef4fe"/><path d="M 813.05 353.5 A 35.35 35.35 0 0 1 848.4 388.85 L 839.5625 388.85 A 26.512500000000003 26.512500000000003 0 0 0 813.05 362.3375" fill="#aef4fe"/><rect x="848.4" y="353.5" width="70.7" height="70.7" fill="#02A9C1"/><polygon points="353.5,424.2 353.5,494.9 282.8,494.9" fill="#aef4fe"/><rect x="353.5" y="424.2" width="70.7" height="70.7" fill="#02A9C1"/><rect x="424.2" y="424.2" width="70.7" height="70.7" fill="#aef4fe"/><polygon points="494.9,424.2 565.6,494.9 494.9,494.9" fill="#02A9C1"/><rect x="636.3000000000001" y="424.20000000000005" width="70.7" height="70.7" fill="#2776BC"/><circle cx="653.9749999999999" cy="441.875" r="17.675" fill="#aef4fe"/><rect x="671.65" y="424.2" width="35.35" height="35.35" fill="#02A9C1"/><circle cx="653.9749999999999" cy="477.225" r="17.675" fill="#aef4fe"/><rect x="671.65" y="459.55" width="35.35" height="35.35" fill="#02A9C1"/><rect x="707" y="424.20000000000005" width="70.7" height="70.7" fill="#2776BC"/><path d="M 707 459.55 A 35.35 35.35 0 0 1 742.35 424.2 L 742.35 433.03749999999997 A 26.512500000000003 26.512500000000003 0 0 0 715.8375 459.55" fill="#02A9C1"/><path d="M 742.35 424.2 A 35.35 35.35 0 0 1 777.7 459.55 L 768.8625000000001 459.55 A 26.512500000000003 26.512500000000003 0 0 0 742.35 433.03749999999997" fill="#02A9C1"/><path d="M 707 459.55 A 35.35 35.35 0 0 0 742.35 494.90000000000003 L 742.35 486.0625 A 26.512500000000003 26.512500000000003 0 0 1 715.8375 459.55" fill="#aef4fe"/><path d="M 742.35 494.90000000000003 A 35.35 35.35 0 0 0 777.7 459.55 L 768.8625000000001 459.55 A 26.512500000000003 26.512500000000003 0 0 1 742.35 486.0625" fill="#02A9C1"/><rect x="777.7" y="424.20000000000005" width="70.7" height="70.7" fill="#2776BC"/><path d="M 777.7 459.55 A 35.35 35.35 0 0 0 813.0500000000001 424.2 L 777.7 424.2" fill="#aef4fe"/><path d="M 813.05 424.2 A 35.35 35.35 0 0 0 848.4 459.55 L 848.4 424.2" fill="#aef4fe"/><path d="M 777.7 459.55 A 35.35 35.35 0 0 1 813.0500000000001 494.90000000000003 L 777.7 494.90000000000003" fill="#02A9C1"/><path d="M 813.05 494.90000000000003 A 35.35 35.35 0 0 1  848.4 459.55 L 848.4 494.90000000000003" fill="#02A9C1"/><rect x="141.4" y="494.9" width="70.7" height="70.7" fill="#02A9C1"/><rect x="353.5" y="494.9" width="70.7" height="70.7" fill="#02A9C1"/><rect x="424.20000000000005" y="494.90000000000003" width="70.7" height="70.7" fill="#2776BC"/><polygon points="459.55,494.9 459.55,530.25 424.2,530.25" fill="#aef4fe"/><polygon points="459.55,494.9 494.90000000000003,530.25 459.55,530.25" fill="#02A9C1"/><polygon points="459.55,530.25 494.90000000000003,530.25 459.55,565.6" fill="#aef4fe"/><rect x="565.6" y="494.9" width="70.7" height="70.7" fill="#02A9C1"/><polygon points="636.3,494.9 707,494.9 707,565.6" fill="#aef4fe"/><path d="M 707 494.9 A 70.7 70.7 0 0 1  777.7 565.6 L 707 494.9 A 70.7 70.7 0 0 0 777.7 565.6" fill="#02A9C1"/><polygon points="565.6,565.6 636.3000000000001,565.6 636.3000000000001,636.3000000000001" fill="#aef4fe"/><rect x="848.4000000000001" y="565.6" width="70.7" height="70.7" fill="#2776BC"/><rect x="141.4" y="636.3" width="70.7" height="70.7" fill="#02A9C1"/><polygon points="282.8,636.3 353.5,636.3 282.8,707" fill="#02A9C1"/><rect x="565.6" y="636.3000000000001" width="70.7" height="70.7" fill="#2776BC"/><path d="M 777.7 707 A 70.7 70.7 0 0 0 848.4000000000001 636.3 L 777.7 636.3" fill="#02A9C1"/></g></svg>